<svg xmlns="http://www.w3.org/2000/svg" xml:space="preserve" id="Layer_1" width="800" height="800" version="1.1" viewBox="0 0 64 64"><style>.st0{fill:#1379c2}.st2,.st3{fill-rule:evenodd;clip-rule:evenodd;fill:#3fb754}.st3{fill:#ccc}.st4{fill:#5d5e61}.st5{fill:#924f34}.st6{fill:#e6e6e6}.st7{fill:#0f8c7e}.st8,.st9{fill-rule:evenodd;clip-rule:evenodd;fill:#e6e6e6}.st9{stroke:#000;stroke-width:.4799;stroke-miterlimit:2.6131}.st10{fill:#823b1f}.st11{fill:#ffc810}.st12{fill:#924f34}.st12,.st14,.st15{fill-rule:evenodd;clip-rule:evenodd}.st15{fill:#ffc810}.st17{fill:#3fb754}.st18{fill-rule:evenodd;clip-rule:evenodd;fill:#5d5e61}.st19{fill:#c92b1c}.st20{fill:#666}.st21{fill:#ffd95e}.st22{fill:#4d4d4d}.st23{fill-rule:evenodd;clip-rule:evenodd;fill:#0f8c7e}.st24{fill:#999}.st25{fill:#ccc}.st26,.st27{fill-rule:evenodd;clip-rule:evenodd;fill:#358dcc}.st27{fill:#823b1f}</style><path d="M12.2 38.9c-1.8 0-2.8-2.1-1.8-3.5L30.1 3.5c.8-1.4 2.9-1.4 3.7 0 6.6 10.7 13.2 21.4 19.9 32 .9 1.5-.2 3.3-1.9 3.3.1.1-7.4.1-39.6.1z" style="fill:#358dcc"/><path d="M12.2 39.8c-2.6 0-4-2.9-2.5-5L29.3 3c1.2-2 4.1-2 5.3-.1 6.6 10.7 13.2 21.4 19.8 32 1.3 2.1-.2 4.8-2.7 4.8l-39.5.1zm0-1.9h39.7c1 0 1.6-1.1 1.1-1.9-6.7-10.6-13.4-21.3-19.9-32-.5-.7-1.6-.8-2.1 0L11.2 35.9v.1c-.7.7-.1 1.9 1 1.9z"/><path d="M29.8 45.6h4.4V3.1c0-1.2-1-2.2-2.2-2.2-1.2 0-2.2 1-2.2 2.2v42.5z" style="fill-rule:evenodd;clip-rule:evenodd;fill:#e4e7e9"/><path d="M30.8 44.7h2.5V3.1c0-1.6-2.5-1.6-2.5 0v41.6zm3.4 1.9H28.9V3.1c0-4.1 6.3-4.1 6.3 0v43.4h-1v.1z"/><path d="M60.3 42.2c1.6.1 2.5 1.9 1.7 3.3l-8.2 16.4c-.4.8-1.3 1.3-2.1 1.2H12.2c-.9 0-1.6-.5-2-1.3L1.9 45.3c-.7-1.5.4-3.2 2-3.2h56.4v.1z" style="fill:#e04538"/><path d="M60.4 41.2c2.2.2 3.6 2.6 2.5 4.6l-8.2 16.4c-.6 1.1-1.8 1.8-3.1 1.7H12.2c-1.2 0-2.3-.7-2.8-1.8L1.1 45.7c-1.1-2.1.5-4.5 2.8-4.5h56.5zm-.2 1.9H3.9c-.9 0-1.5 1-1.1 1.8L11 61.4c.2.4.6.7 1.1.7h39.6c.5 0 1-.2 1.2-.7L61.2 45c.4-.8-.1-1.8-1-1.9z"/></svg>